HIERARCHY
ROOT hip
{
  OFFSET 0 90.174 2.4664
  CHANNELS 6 Xposition Yposition Zposition Zrotation Xrotation Yrotation
  JOINT abdomen
  {
    OFFSET 0 -1.186 -1.5018
    CHANNELS 6 Xposition Yposition Zposition Zrotation Xrotation Yrotation
    JOINT abdomen2
    {
      OFFSET 0 9.964 0.2134
      CHANNELS 6 Xposition Yposition Zposition Zrotation Xrotation Yrotation
      JOINT chest
      {
        OFFSET 0 13.134 -3.2573
        CHANNELS 6 Xposition Yposition Zposition Zrotation Xrotation Yrotation
        JOINT neck
        {
          OFFSET 0 20.686 -1.6905
          CHANNELS 6 Xposition Yposition Zposition Zrotation Xrotation Yrotation
          JOINT head
          {
            OFFSET 0 7.238 -0.1237
            CHANNELS 6 Xposition Yposition Zposition Zrotation Xrotation Yrotation
            End Site
            {
              OFFSET 0 0 0
            }
          }
        }
        JOINT lCollar
        {
          OFFSET 1.7069 20.075 5.0056
          CHANNELS 6 Xposition Yposition Zposition Zrotation Xrotation Yrotation
          JOINT lShldr
          {
            OFFSET 13.6458 -0.047 -4.849
            CHANNELS 6 Xposition Yposition Zposition Zrotation Xrotation Yrotation
            JOINT lForeArm
            {
              OFFSET 28.3255 -0.9759 2.2888
              CHANNELS 6 Xposition Yposition Zposition Zrotation Xrotation Yrotation
              JOINT lHand
              {
                OFFSET 22.1583 -0.53 10.8316
                CHANNELS 6 Xposition Yposition Zposition Zrotation Xrotation Yrotation
                JOINT lThumb1
                {
                  OFFSET 0.786 0.112 2.5817
                  CHANNELS 6 Xposition Yposition Zposition Zrotation Xrotation Yrotation
                  JOINT lThumb2
                  {
                    OFFSET 0.3601 -0.878 4.2331
                    CHANNELS 6 Xposition Yposition Zposition Zrotation Xrotation Yrotation
                    JOINT lThumb2_End
                    {
                      OFFSET 1.8127 -1.216 2.2227
                      CHANNELS 6 Xposition Yposition Zposition Zrotation Xrotation Yrotation
                      End Site
                      {
                        OFFSET 0.0181 -0.0122 0.0222
                      }
                    }
                  }
                }
                JOINT lCarpal1
                {
                  OFFSET 0.9571 1.114 1.7695
                  CHANNELS 6 Xposition Yposition Zposition Zrotation Xrotation Yrotation
                  JOINT lIndex1
                  {
                    OFFSET 4.1246 0.487 4.1451
                    CHANNELS 6 Xposition Yposition Zposition Zrotation Xrotation Yrotation
                    JOINT lIndex2
                    {
                      OFFSET 3.4052 -1.454 2.7682
                      CHANNELS 6 Xposition Yposition Zposition Zrotation Xrotation Yrotation
                      JOINT lIndex2_End
                      {
                        OFFSET 1.4531 -1.795 1.2713
                        CHANNELS 6 Xposition Yposition Zposition Zrotation Xrotation Yrotation
                        End Site
                        {
                          OFFSET 0.0145 -0.0179 0.0127
                        }
                      }
                    }
                  }
                  JOINT lMid1
                  {
                    OFFSET 5.6954 0.21 2.1184
                    CHANNELS 6 Xposition Yposition Zposition Zrotation Xrotation Yrotation
                    JOINT lMid2
                    {
                      OFFSET 3.9766 -1.54 2.3863
                      CHANNELS 6 Xposition Yposition Zposition Zrotation Xrotation Yrotation
                      JOINT lMid2_End
                      {
                        OFFSET 1.4042 -1.926 1.125
                        CHANNELS 6 Xposition Yposition Zposition Zrotation Xrotation Yrotation
                        End Site
                        {
                          OFFSET 0.014 -0.0193 0.0113
                        }
                      }
                    }
                  }
                }
                JOINT lCarpal2
                {
                  OFFSET 2.0956 0.66 -0.3894
                  CHANNELS 6 Xposition Yposition Zposition Zrotation Xrotation Yrotation
                  JOINT lRing1
                  {
                    OFFSET 5.0395 -0.09 2.4971
                    CHANNELS 6 Xposition Yposition Zposition Zrotation Xrotation Yrotation
                    JOINT lRing2
                    {
                      OFFSET 3.7921 -1.552 1.4806
                      CHANNELS 6 Xposition Yposition Zposition Zrotation Xrotation Yrotation
                      JOINT lRing2_End
                      {
                        OFFSET 1.4655 -1.808 0.9609
                        CHANNELS 6 Xposition Yposition Zposition Zrotation Xrotation Yrotation
                        End Site
                        {
                          OFFSET 0.0147 -0.0181 0.0096
                        }
                      }
                    }
                  }
                  JOINT lPinky1
                  {
                    OFFSET 4.9141 -1.269 0.3591
                    CHANNELS 6 Xposition Yposition Zposition Zrotation Xrotation Yrotation
                    JOINT lPinky2
                    {
                      OFFSET 3.1477 -1.685 0.8462
                      CHANNELS 6 Xposition Yposition Zposition Zrotation Xrotation Yrotation
                      JOINT lPinky2_End
                      {
                        OFFSET 0.8055 -1.585 0.7955
                        CHANNELS 6 Xposition Yposition Zposition Zrotation Xrotation Yrotation
                        End Site
                        {
                          OFFSET 0.0081 -0.0158 0.008
                        }
                      }
                    }
                  }
                }
              }
            }
          }
        }
        JOINT rCollar
        {
          OFFSET -1.7069 20.075 5.0056
          CHANNELS 6 Xposition Yposition Zposition Zrotation Xrotation Yrotation
          JOINT rShldr
          {
            OFFSET -13.6458 -0.047 -4.849
            CHANNELS 6 Xposition Yposition Zposition Zrotation Xrotation Yrotation
            JOINT rForeArm
            {
              OFFSET -28.3255 -0.9759 2.2888
              CHANNELS 6 Xposition Yposition Zposition Zrotation Xrotation Yrotation
              JOINT rHand
              {
                OFFSET -22.1583 -0.53 10.8316
                CHANNELS 6 Xposition Yposition Zposition Zrotation Xrotation Yrotation
                JOINT rThumb1
                {
                  OFFSET -0.786 0.112 2.5817
                  CHANNELS 6 Xposition Yposition Zposition Zrotation Xrotation Yrotation
                  JOINT rThumb2
                  {
                    OFFSET -0.3601 -0.878 4.2331
                    CHANNELS 6 Xposition Yposition Zposition Zrotation Xrotation Yrotation
                    JOINT rThumb2_End
                    {
                      OFFSET -1.8127 -1.216 2.2227
                      CHANNELS 6 Xposition Yposition Zposition Zrotation Xrotation Yrotation
                      End Site
                      {
                        OFFSET -0.0181 -0.0122 0.0222
                      }
                    }
                  }
                }
                JOINT rCarpal1
                {
                  OFFSET -0.9571 1.114 1.7695
                  CHANNELS 6 Xposition Yposition Zposition Zrotation Xrotation Yrotation
                  JOINT rIndex1
                  {
                    OFFSET -4.1246 0.487 4.1451
                    CHANNELS 6 Xposition Yposition Zposition Zrotation Xrotation Yrotation
                    JOINT rIndex2
                    {
                      OFFSET -3.4052 -1.454 2.7682
                      CHANNELS 6 Xposition Yposition Zposition Zrotation Xrotation Yrotation
                      JOINT rIndex2_End
                      {
                        OFFSET -1.4531 -1.795 1.2713
                        CHANNELS 6 Xposition Yposition Zposition Zrotation Xrotation Yrotation
                        End Site
                        {
                          OFFSET -0.0145 -0.018 0.0127
                        }
                      }
                    }
                  }
                  JOINT rMid1
                  {
                    OFFSET -5.6954 0.21 2.1184
                    CHANNELS 6 Xposition Yposition Zposition Zrotation Xrotation Yrotation
                    JOINT rMid2
                    {
                      OFFSET -3.9766 -1.54 2.3863
                      CHANNELS 6 Xposition Yposition Zposition Zrotation Xrotation Yrotation
                      JOINT rMid2_End
                      {
                        OFFSET -1.4042 -1.926 1.125
                        CHANNELS 6 Xposition Yposition Zposition Zrotation Xrotation Yrotation
                        End Site
                        {
                          OFFSET -0.014 -0.0193 0.0113
                        }
                      }
                    }
                  }
                }
                JOINT rCarpal2
                {
                  OFFSET -2.0956 0.66 -0.3894
                  CHANNELS 6 Xposition Yposition Zposition Zrotation Xrotation Yrotation
                  JOINT rRing1
                  {
                    OFFSET -5.0395 -0.09 2.4971
                    CHANNELS 6 Xposition Yposition Zposition Zrotation Xrotation Yrotation
                    JOINT rRing2
                    {
                      OFFSET -3.7921 -1.552 1.4806
                      CHANNELS 6 Xposition Yposition Zposition Zrotation Xrotation Yrotation
                      JOINT rRing2_End
                      {
                        OFFSET -1.4655 -1.808 0.9609
                        CHANNELS 6 Xposition Yposition Zposition Zrotation Xrotation Yrotation
                        End Site
                        {
                          OFFSET -0.0147 -0.0181 0.0096
                        }
                      }
                    }
                  }
                  JOINT rPinky1
                  {
                    OFFSET -4.9141 -1.269 0.3592
                    CHANNELS 6 Xposition Yposition Zposition Zrotation Xrotation Yrotation
                    JOINT rPinky2
                    {
                      OFFSET -3.1477 -1.685 0.8462
                      CHANNELS 6 Xposition Yposition Zposition Zrotation Xrotation Yrotation
                      JOINT rPinky2_End
                      {
                        OFFSET -0.8055 -1.585 0.7955
                        CHANNELS 6 Xposition Yposition Zposition Zrotation Xrotation Yrotation
                        End Site
                        {
                          OFFSET -0.0081 -0.0158 0.008
                        }
                      }
                    }
                  }
                }
              }
            }
          }
        }
      }
    }
  }
  JOINT lThigh
  {
    OFFSET 8.367 -8.2066 0.5982
    CHANNELS 6 Xposition Yposition Zposition Zrotation Xrotation Yrotation
    JOINT lShin
    {
      OFFSET 2.1923 -43.463 -0.4932
      CHANNELS 6 Xposition Yposition Zposition Zrotation Xrotation Yrotation
      JOINT lFoot
      {
        OFFSET 0.7333 -45.8593 -2.6451
        CHANNELS 6 Xposition Yposition Zposition Zrotation Xrotation Yrotation
        End Site
        {
          OFFSET 2.6618 -4.2699 12.3931
        }
      }
    }
  }
  JOINT rThigh
  {
    OFFSET -8.367 -8.2066 0.5982
    CHANNELS 6 Xposition Yposition Zposition Zrotation Xrotation Yrotation
    JOINT rShin
    {
      OFFSET -2.1923 -43.463 -0.4931
      CHANNELS 6 Xposition Yposition Zposition Zrotation Xrotation Yrotation
      JOINT rFoot
      {
        OFFSET -0.7333 -45.8593 -2.6451
        CHANNELS 6 Xposition Yposition Zposition Zrotation Xrotation Yrotation
        End Site
        {
          OFFSET -2.6618 -4.2699 12.3931
        }
      }
    }
  }
}
MOTION
Frames:	4
Frame Time:	0.0333333
0 90.174 2.4664 0 0 -0 0 -1.186 -1.5018 0 0 -0 0 9.964 0.2134 0 0 -0 0 13.134 -3.2573 0 0 -0 0 20.686 -1.6905 0 0 -0 0 7.238 -0.1237 0 0 -0 1.7069 20.075 5.0056 0 0 -0 13.6458 -0.047 -4.849 1.66051 0.0835086 5.75766 28.3255 -0.9759 2.2888 -0.0175111 0.895433 15.7816 22.1583 -0.53 10.8316 7.95139e-016 -1.98785e-016 -0 0.786 0.112 2.5817 5.46658e-016 -3.97569e-016 -0 0.3601 -0.878 4.2331 5.96354e-016 0 -0 1.8127 -1.216 2.2227 3.97569e-016 1.98785e-016 9.54166e-015 0.9571 1.114 1.7695 1.49089e-016 -3.97569e-016 -0 4.1246 0.487 4.1451 6.4605e-016 0 3.18055e-015 3.4052 -1.454 2.7682 5.96354e-016 0 3.18055e-015 1.4531 -1.795 1.2713 8.94531e-016 -1.98785e-016 6.36111e-015 5.6954 0.21 2.1184 6.4605e-016 0 3.18055e-015 3.9766 -1.54 2.3863 5.96354e-016 0 3.18055e-015 1.4042 -1.926 1.125 8.94531e-016 -1.98785e-016 6.36111e-015 2.0956 0.66 -0.3894 1.49089e-016 -3.97569e-016 -0 5.0395 -0.09 2.4971 6.4605e-016 0 3.18055e-015 3.7921 -1.552 1.4806 5.96354e-016 0 3.18055e-015 1.4655 -1.808 0.9609 8.94531e-016 -1.98785e-016 6.36111e-015 4.9141 -1.269 0.3591 6.4605e-016 0 3.18055e-015 3.1477 -1.685 0.8462 5.96354e-016 0 3.18055e-015 0.8055 -1.585 0.7955 8.94531e-016 -1.98785e-016 6.36111e-015 -1.7069 20.075 5.0056 0 0 -0 -13.6458 -0.047 -4.849 -1.4496 0.0636048 -5.0245 -28.3255 -0.9759 2.2888 -1.74811 1.20616 -16.8394 -22.1583 -0.53 10.8316 -1.19271e-015 1.98785e-016 -3.18055e-015 -0.786 0.112 2.5817 -3.97569e-016 1.98785e-016 -3.18055e-015 -0.3601 -0.878 4.2331 -2.98177e-016 1.98785e-016 -3.18055e-015 -1.8127 -1.216 2.2227 -2.98177e-016 3.97569e-016 -0 -0.9571 1.114 1.7695 4.96962e-016 0 -6.36111e-015 -4.1246 0.487 4.1451 -9.93923e-017 3.97569e-016 -0 -3.4052 -1.454 2.7682 -8.94531e-016 5.96354e-016 -0 -1.4531 -1.795 1.2713 -3.97569e-016 3.97569e-016 -0 -5.6954 0.21 2.1184 -9.93923e-017 3.97569e-016 -0 -3.9766 -1.54 2.3863 -8.94531e-016 5.96354e-016 -0 -1.4042 -1.926 1.125 -3.97569e-016 3.97569e-016 -0 -2.0956 0.66 -0.3894 4.96962e-016 0 -6.36111e-015 -5.0395 -0.09 2.4971 -9.93923e-017 3.97569e-016 -0 -3.7921 -1.552 1.4806 -8.94531e-016 5.96354e-016 -0 -1.4655 -1.808 0.9609 -3.97569e-016 3.97569e-016 -0 -4.9141 -1.269 0.3592 -9.93923e-017 3.97569e-016 -0 -3.1477 -1.685 0.8462 -8.94531e-016 5.96354e-016 -0 -0.8055 -1.585 0.7955 -3.97569e-016 3.97569e-016 -0 8.367 -8.2066 0.5982 -4.66115 -1.03232 0.120763 2.1923 -43.463 -0.4932 0.00990601 1.55097 0.177175 0.7333 -45.8593 -2.6451 4.65196 -0.54114 -0.255042 -8.367 -8.2066 0.5982 4.66115 -1.03222 -0.120763 -2.1923 -43.463 -0.4931 -0.00990459 1.5509 -0.177176 -0.7333 -45.8593 -2.6451 -4.65196 -0.541171 0.255041 
0.977652 85.9574 28.1627 0 39.9976 -0 0 -1.186 -1.5018 0.414273 -5.07865 -0.378361 0 9.964 0.2134 0.799456 -10.1598 -0.723974 0 13.134 -3.2573 0.799456 -10.1598 -0.723973 0 20.686 -1.6905 0.26376 0.169986 0.158727 0 7.238 -0.1237 -1.8308e-007 0.31649 -2.6467e-007 1.7069 20.075 5.0056 -23.2589 37.6464 -6.59669 13.6458 -0.047 -4.849 -79.4742 -50.466 -43.1246 28.3255 -0.9759 2.2888 -108.225 8.7486 11.7968 22.1583 -0.53 10.8316 125.729 29.2117 -57.0494 0.786 0.112 2.5817 -4.6827e-006 2.04533e-006 -1.44355e-006 0.3601 -0.878 4.2331 -2.31938e-006 -8.84569e-007 9.82587e-007 1.8127 -1.216 2.2227 -1.4204e-006 1.32385e-006 4.85181e-007 0.9571 1.114 1.7695 3.18055e-015 -1.59028e-015 -3.18055e-015 4.1246 0.487 4.1451 -4.6827e-006 2.04533e-006 -1.44355e-006 3.4052 -1.454 2.7682 -2.31938e-006 -8.84569e-007 9.82587e-007 1.4531 -1.795 1.2713 -1.4204e-006 1.32385e-006 4.85181e-007 5.6954 0.21 2.1184 -4.6827e-006 2.04533e-006 -1.44355e-006 3.9766 -1.54 2.3863 -2.31938e-006 -8.84569e-007 9.82587e-007 1.4042 -1.926 1.125 -1.4204e-006 1.32385e-006 4.85181e-007 2.0956 0.66 -0.3894 3.18055e-015 -1.59028e-015 -3.18055e-015 5.0395 -0.09 2.4971 -4.6827e-006 2.04533e-006 -1.44355e-006 3.7921 -1.552 1.4806 -2.31938e-006 -8.84569e-007 9.82587e-007 1.4655 -1.808 0.9609 -1.4204e-006 1.32385e-006 4.85181e-007 4.9141 -1.269 0.3591 -4.6827e-006 2.04533e-006 -1.44355e-006 3.1477 -1.685 0.8462 -2.31938e-006 -8.84569e-007 9.82587e-007 0.8055 -1.585 0.7955 -1.4204e-006 1.32385e-006 4.85181e-007 -1.7069 20.075 5.0056 22.3426 37.3817 3.20602 -13.6458 -0.047 -4.849 79.1456 -51.1772 43.5541 -28.3255 -0.9759 2.2888 104.705 7.85779 -11.2493 -22.1583 -0.53 10.8316 -123.774 32.6343 63.5896 -0.786 0.112 2.5817 -6.36111e-015 9.54166e-015 3.18055e-015 -0.3601 -0.878 4.2331 -4.77083e-015 -3.18055e-015 -0 -1.8127 -1.216 2.2227 -3.18055e-015 6.36111e-015 -3.18055e-015 -0.9571 1.114 1.7695 -6.36111e-015 7.95139e-015 3.18055e-015 -4.1246 0.487 4.1451 -3.18055e-015 -1.27222e-014 6.36111e-015 -3.4052 -1.454 2.7682 4.77083e-015 -6.36111e-015 -3.18055e-015 -1.4531 -1.795 1.2713 1.76556e-031 -3.18055e-015 3.18055e-015 -5.6954 0.21 2.1184 -3.18055e-015 -1.27222e-014 6.36111e-015 -3.9766 -1.54 2.3863 4.77083e-015 -6.36111e-015 -3.18055e-015 -1.4042 -1.926 1.125 1.76556e-031 -3.18055e-015 3.18055e-015 -2.0956 0.66 -0.3894 -6.36111e-015 7.95139e-015 3.18055e-015 -5.0395 -0.09 2.4971 -3.18055e-015 -1.27222e-014 6.36111e-015 -3.7921 -1.552 1.4806 4.77083e-015 -6.36111e-015 -3.18055e-015 -1.4655 -1.808 0.9609 1.76556e-031 -3.18055e-015 3.18055e-015 -4.9141 -1.269 0.3592 -3.18055e-015 -1.27222e-014 6.36111e-015 -3.1477 -1.685 0.8462 4.77083e-015 -6.36111e-015 -3.18055e-015 -0.8055 -1.585 0.7955 1.76556e-031 -3.18055e-015 3.18055e-015 8.367 -8.2066 0.5982 33.028 -64.724 40.2703 2.1923 -43.463 -0.4932 -4.35505 28.7039 6.06441 0.7333 -45.8593 -2.6451 9.57021 13.0302 9.17338 -8.367 -8.2066 0.5982 -33.4432 -64.089 -38.1208 -2.1923 -43.463 -0.4931 4.24064 27.1946 -5.83601 -0.7333 -45.8593 -2.6451 -7.38976 15.015 -11.2167 
0.977652 86.0819 28.5166 0 38.618 -0 0 -1.186 -1.5018 0.410375 -4.68135 -0.385658 -2.22045e-016 9.964 0.2134 0.792995 -9.36526 -0.741267 0 13.134 -3.2573 0.792995 -9.36525 -0.741268 0 20.686 -1.6905 0.544329 0.300658 0.274746 0 7.238 -0.1237 -1.78411e-008 0.433188 1.98728e-007 1.7069 20.075 5.0056 -23.2339 37.3645 -6.83764 13.6458 -0.047 -4.849 -79.4742 -50.466 -43.1246 28.3255 -0.9759 2.2888 -107.81 8.66664 11.6886 22.1583 -0.53 10.8316 125.52 28.9815 -57.5019 0.786 0.112 2.5817 6.36111e-015 9.54166e-015 1.59028e-014 0.3601 -0.878 4.2331 -7.06225e-031 6.36111e-015 6.36111e-015 1.8127 -1.216 2.2227 -2.11868e-030 6.36111e-015 1.90833e-014 0.9571 1.114 1.7695 1.59028e-015 0 6.36111e-015 4.1246 0.487 4.1451 -2.8249e-030 1.27222e-014 1.27222e-014 3.4052 -1.454 2.7682 9.54166e-015 9.54166e-015 6.36111e-015 1.4531 -1.795 1.2713 7.95139e-015 9.54166e-015 1.27222e-014 5.6954 0.21 2.1184 -2.8249e-030 1.27222e-014 1.27222e-014 3.9766 -1.54 2.3863 9.54166e-015 9.54166e-015 6.36111e-015 1.4042 -1.926 1.125 7.95139e-015 9.54166e-015 1.27222e-014 2.0956 0.66 -0.3894 1.59028e-015 0 6.36111e-015 5.0395 -0.09 2.4971 -2.8249e-030 1.27222e-014 1.27222e-014 3.7921 -1.552 1.4806 9.54166e-015 9.54166e-015 6.36111e-015 1.4655 -1.808 0.9609 7.95139e-015 9.54166e-015 1.27222e-014 4.9141 -1.269 0.3591 -2.8249e-030 1.27222e-014 1.27222e-014 3.1477 -1.685 0.8462 9.54166e-015 9.54166e-015 6.36111e-015 0.8055 -1.585 0.7955 7.95139e-015 9.54166e-015 1.27222e-014 -1.7069 20.075 5.0056 22.3153 37.1065 3.46236 -13.6458 -0.047 -4.849 79.1456 -51.1772 43.5541 -28.3255 -0.9759 2.2888 104.705 7.85782 -11.2493 -22.1583 -0.53 10.8316 -123.773 32.6343 63.5896 -0.786 0.112 2.5817 5.63183e-006 -2.33664e-006 -9.76188e-007 -0.3601 -0.878 4.2331 -9.54166e-015 0 -6.36111e-015 -1.8127 -1.216 2.2227 4.12572e-006 1.13188e-006 -1.8508e-006 -0.9571 1.114 1.7695 4.77083e-015 -1.59028e-015 3.18055e-015 -4.1246 0.487 4.1451 5.63183e-006 -2.33664e-006 -9.76188e-007 -3.4052 -1.454 2.7682 -3.18055e-015 -6.36111e-015 -0 -1.4531 -1.795 1.2713 4.12572e-006 1.13188e-006 -1.8508e-006 -5.6954 0.21 2.1184 5.63183e-006 -2.33664e-006 -9.76188e-007 -3.9766 -1.54 2.3863 -3.18055e-015 -6.36111e-015 -0 -1.4042 -1.926 1.125 4.12572e-006 1.13188e-006 -1.8508e-006 -2.0956 0.66 -0.3894 4.77083e-015 -1.59028e-015 3.18055e-015 -5.0395 -0.09 2.4971 5.63183e-006 -2.33664e-006 -9.76188e-007 -3.7921 -1.552 1.4806 -3.18055e-015 -6.36111e-015 -0 -1.4655 -1.808 0.9609 4.12572e-006 1.13188e-006 -1.8508e-006 -4.9141 -1.269 0.3592 5.63183e-006 -2.33664e-006 -9.76188e-007 -3.1477 -1.685 0.8462 -3.18055e-015 -6.36111e-015 -0 -0.8055 -1.585 0.7955 4.12572e-006 1.13188e-006 -1.8508e-006 8.367 -8.2066 0.5982 31.7451 -63.2013 39.1413 2.1923 -43.463 -0.4932 -4.35701 28.7074 6.04767 0.7333 -45.8593 -2.6451 9.6174 12.5665 8.79443 -8.367 -8.2066 0.5982 -32.2319 -62.5748 -37.1 -2.1923 -43.463 -0.4931 4.24248 27.1974 -5.81857 -0.7333 -45.8593 -2.6451 -7.48251 14.5455 -10.7703 
0.97759 86.2051 28.8682 0 37.2351 -0 0 -1.186 -1.5018 0.406462 -4.28313 -0.392872 -2.22045e-016 9.964 0.2134 0.786681 -8.56885 -0.758359 0 13.134 -3.2573 0.786681 -8.56885 -0.75836 -8.88178e-016 20.686 -1.6905 0.824817 0.432066 0.390211 -8.88178e-016 7.238 -0.1237 4.93662e-007 0.549922 -1.03749e-006 1.7069 20.075 5.0056 -23.2105 37.0824 -7.07757 13.6458 -0.047 -4.849 -79.4743 -50.466 -43.1246 28.3255 -0.9759 2.2888 -107.395 8.5839 11.581 22.1583 -0.53 10.8316 125.31 28.7527 -57.9545 0.786 0.112 2.5817 1.40358e-006 -5.76575e-006 3.29433e-006 0.3601 -0.878 4.2331 -4.3174e-007 6.71572e-006 2.89686e-006 1.8127 -1.216 2.2227 -3.96585e-006 -4.04228e-006 -3.62565e-006 0.9571 1.114 1.7695 1.59028e-015 4.77083e-015 3.18055e-015 4.1246 0.487 4.1451 1.40358e-006 -5.76575e-006 3.29433e-006 3.4052 -1.454 2.7682 -4.3174e-007 6.71572e-006 2.89686e-006 1.4531 -1.795 1.2713 -3.96585e-006 -4.04228e-006 -3.62565e-006 5.6954 0.21 2.1184 1.40358e-006 -5.76575e-006 3.29433e-006 3.9766 -1.54 2.3863 -4.3174e-007 6.71572e-006 2.89686e-006 1.4042 -1.926 1.125 -3.96585e-006 -4.04228e-006 -3.62565e-006 2.0956 0.66 -0.3894 1.59028e-015 4.77083e-015 3.18055e-015 5.0395 -0.09 2.4971 1.40358e-006 -5.76575e-006 3.29433e-006 3.7921 -1.552 1.4806 -4.3174e-007 6.71572e-006 2.89686e-006 1.4655 -1.808 0.9609 -3.96585e-006 -4.04228e-006 -3.62565e-006 4.9141 -1.269 0.3591 1.40358e-006 -5.76575e-006 3.29433e-006 3.1477 -1.685 0.8462 -4.3174e-007 6.71572e-006 2.89686e-006 0.8055 -1.585 0.7955 -3.96585e-006 -4.04228e-006 -3.62565e-006 -1.7069 20.075 5.0056 22.2896 36.8312 3.71765 -13.6458 -0.047 -4.849 79.1455 -51.1772 43.554 -28.3255 -0.9759 2.2888 104.705 7.8578 -11.2493 -22.1583 -0.53 10.8316 -123.773 32.6343 63.5896 -0.786 0.112 2.5817 6.36111e-015 9.54166e-015 -1.27222e-014 -0.3601 -0.878 4.2331 -4.86774e-006 -2.44665e-006 2.635e-006 -1.8127 -1.216 2.2227 7.95139e-015 7.95139e-015 -3.18055e-015 -0.9571 1.114 1.7695 -8.82781e-032 -1.59028e-015 -3.18055e-015 -4.1246 0.487 4.1451 1.59028e-015 0 3.18055e-015 -3.4052 -1.454 2.7682 -4.86774e-006 -2.44665e-006 2.635e-006 -1.4531 -1.795 1.2713 1.11319e-014 3.18055e-015 -1.27222e-014 -5.6954 0.21 2.1184 1.59028e-015 0 3.18055e-015 -3.9766 -1.54 2.3863 -4.86774e-006 -2.44665e-006 2.635e-006 -1.4042 -1.926 1.125 1.11319e-014 3.18055e-015 -1.27222e-014 -2.0956 0.66 -0.3894 -8.82781e-032 -1.59028e-015 -3.18055e-015 -5.0395 -0.09 2.4971 1.59028e-015 0 3.18055e-015 -3.7921 -1.552 1.4806 -4.86774e-006 -2.44665e-006 2.635e-006 -1.4655 -1.808 0.9609 1.11319e-014 3.18055e-015 -1.27222e-014 -4.9141 -1.269 0.3592 1.59028e-015 0 3.18055e-015 -3.1477 -1.685 0.8462 -4.86774e-006 -2.44665e-006 2.635e-006 -0.8055 -1.585 0.7955 1.11319e-014 3.18055e-015 -1.27222e-014 8.367 -8.2066 0.5982 30.5881 -61.6631 38.1395 2.1923 -43.463 -0.4932 -4.35916 28.7115 6.03071 0.7333 -45.8593 -2.6451 9.66082 12.1021 8.41647 -8.367 -8.2066 0.5982 -31.1338 -61.0466 -36.1942 -2.1923 -43.463 -0.4931 4.24453 27.201 -5.80091 -0.7333 -45.8593 -2.6451 -7.5708 14.0748 -10.3254 
